<?xml version="1.0" encoding="UTF-8" standalone="no"?>
<!-- Generator: Adobe Illustrator 15.0.2, SVG Export Plug-In . SVG Version: 6.00 Build 0)  -->

<svg
   xmlns:dc="http://purl.org/dc/elements/1.1/"
   xmlns:cc="http://creativecommons.org/ns#"
   xmlns:rdf="http://www.w3.org/1999/02/22-rdf-syntax-ns#"
   xmlns:svg="http://www.w3.org/2000/svg"
   xmlns="http://www.w3.org/2000/svg"
   xmlns:xlink="http://www.w3.org/1999/xlink"
   xmlns:sodipodi="http://sodipodi.sourceforge.net/DTD/sodipodi-0.dtd"
   xmlns:inkscape="http://www.inkscape.org/namespaces/inkscape"
   version="1.1"
   id="Layer_1"
   x="0px"
   y="0px"
   width="16"
   height="16"
   viewBox="0 0 16 16"
   enable-background="new 0 0 130 130"
   xml:space="preserve"
   inkscape:version="0.48.4 r9939"
   sodipodi:docname="github-blacktocat.svg"
   inkscape:export-filename="/home/decause/code/decause.github.com/images/github-blacktocat.png"
   inkscape:export-xdpi="90"
   inkscape:export-ydpi="90"><metadata
     id="metadata24"><rdf:RDF><cc:Work
         rdf:about=""><dc:format>image/svg+xml</dc:format><dc:type
           rdf:resource="http://purl.org/dc/dcmitype/StillImage" /><dc:title></dc:title></cc:Work></rdf:RDF></metadata><defs
     id="defs22" /><sodipodi:namedview
     pagecolor="#ffffff"
     bordercolor="#666666"
     borderopacity="1"
     objecttolerance="10"
     gridtolerance="10"
     guidetolerance="10"
     inkscape:pageopacity="0"
     inkscape:pageshadow="2"
     inkscape:window-width="1589"
     inkscape:window-height="840"
     id="namedview20"
     showgrid="false"
     inkscape:zoom="22.627417"
     inkscape:cx="14.449883"
     inkscape:cy="8.6090187"
     inkscape:window-x="0"
     inkscape:window-y="27"
     inkscape:window-maximized="1"
     inkscape:current-layer="g5" /><path
     d="m 7.9851467,0.22498111 c -4.288098,0 -7.7606467,3.48000549 -7.7606467,7.77471819 0,4.2965167 3.4725487,7.7753197 7.7606467,7.7753197 4.3180453,0 7.7903533,-3.478923 7.7903533,-7.7753197 0,-4.2947127 -3.472308,-7.77471819 -7.7903533,-7.77471819 z M 1.5087405,9.0047937 c 0.9706972,-0.149375 1.6262876,-0.076852 2.3100212,-0.05352 0.036682,0.095254 0.076732,0.1868992 0.121713,0.2761393 C 3.2716546,9.251467 2.5912886,9.2299387 1.597259,9.4607364 1.563824,9.3096775 1.5337566,9.1590998 1.5087405,9.0047937 z m 4.8918521,2.7149693 c -0.3101757,0.152021 -1.2975904,0.520408 -1.8929257,-0.498518 0,0 -0.3336283,-0.6064 -0.9673297,-0.651501 0,0 -0.6172244,-0.0075 -0.043417,0.384382 0,0 0.4136077,0.193394 0.7004511,0.923191 0,0 0.3753619,1.245152 2.1632921,0.839002 l 0.00493,1.287608 c 0,0 -0.01335,0.163206 -0.1150982,0.328577 C 3.9538246,13.701929 2.1609634,11.850497 1.6104887,9.5155794 2.6161844,9.2814141 3.3067734,9.3055884 3.9705421,9.2821358 c 0.46364,0.8582452 1.370955,1.4094412 2.9854562,1.5768572 -0.2301963,0.15599 -0.4619561,0.418659 -0.5554057,0.86077 z m -0.1550277,0.291895 c 0,0.04823 -0.055084,0.08575 -0.121713,0.08671 -0.068554,0 -0.1233968,-0.0374 -0.1233968,-0.08503 0,-0.04678 0.054963,-0.08599 0.121713,-0.08599 0.068313,-7.22e-4 0.1233968,0.03837 0.1233968,0.08431 z m -0.4019416,0.0694 c 0.00156,0.04582 -0.05352,0.08479 -0.1217129,0.08479 -0.068434,0 -0.1233968,-0.03825 -0.1233968,-0.08479 0,-0.04763 0.054963,-0.08599 0.1233968,-0.08599 0.066509,0 0.1217129,0.03728 0.1217129,0.08599 z m -0.3953266,7.21e-4 c 0,0.04582 -0.0534,0.08527 -0.121713,0.08599 -0.070117,0 -0.1233968,-0.03909 -0.1252009,-0.08503 0,-0.04823 0.055084,-0.08599 0.1233968,-0.08599 0.068434,-1.21e-4 0.1235171,0.03752 0.1235171,0.08503 z M 5.0496024,11.930716 c 0,0.04763 -0.054963,0.08599 -0.1233968,0.08599 -0.06675,0 -0.121713,-0.0374 -0.121713,-0.08599 0,-0.04582 0.05328,-0.08503 0.121713,-0.08503 0.068434,-9.62e-4 0.1233968,0.03837 0.1233968,0.08503 z m -0.8072506,-0.86053 c 0.06675,0 0.1233968,0.03753 0.1233968,0.08503 0,0.04763 -0.056767,0.08503 -0.1233968,0.08599 -0.068434,0 -0.1233968,-0.03752 -0.1233968,-0.08503 0,-0.04763 0.054963,-0.08599 0.1233968,-0.08599 z m -0.2084275,-0.07517 c -0.068434,9.62e-4 -0.1233968,-0.03825 -0.1252008,-0.08503 0,-0.04763 0.056767,-0.08527 0.1233968,-0.08527 0.068313,-7.22e-4 0.1233967,0.03752 0.1233967,0.08431 0.0018,0.04775 -0.054963,0.08599 -0.1215927,0.08599 z m 0.398574,0.358764 c 0.066629,0 0.1233968,0.03837 0.1233968,0.08503 0,0.04763 -0.055084,0.08575 -0.1218333,0.08671 -0.068313,0 -0.1250806,-0.03825 -0.1250806,-0.08503 1.203e-4,-0.04751 0.055204,-0.08671 0.1235171,-0.08671 z m 0.2101112,0.265075 c 0.06687,0 0.1218333,0.03837 0.1218333,0.08515 0,0.04811 -0.053279,0.08599 -0.1218333,0.08695 -0.068313,0 -0.1233967,-0.03873 -0.1233967,-0.08599 0,-0.04594 0.055083,-0.08503 0.1233967,-0.08611 z M 3.8137104,10.720803 c 0,0.04666 -0.053279,0.08515 -0.1218333,0.08599 -0.068193,0 -0.1233968,-0.03765 -0.1233968,-0.08515 0,-0.04763 0.055204,-0.08599 0.1233968,-0.08599 0.06687,-6.02e-4 0.1218333,0.03764 0.1218333,0.08515 z m 3.3824666,3.796796 c -0.086835,-0.01106 -0.1718654,-0.02165 -0.2568962,-0.03524 0.088398,-0.104996 0.1468494,-0.250883 0.1451656,-0.461836 l -0.00337,-1.405352 c 0,0 -0.050032,-0.555406 0.2234612,-0.750363 l 0.00842,2.306533 c 0,2.41e-4 -0.018401,0.170422 -0.116782,0.346257 z m 0.7905332,0.04847 c -0.00505,0 -0.00998,-8.41e-4 -0.01335,-8.41e-4 0.055084,-0.112693 0.090202,-0.254251 0.096817,-0.434415 l 0.00998,-2.334195 0.1919505,-9.62e-4 0.024776,2.333594 c 0.00854,0.175714 0.043538,0.314265 0.09357,0.423469 -0.1336197,0.0075 -0.2684421,0.01335 -0.4037455,0.01335 z M 9.104377,14.470089 C 9.06096,14.305801 9.056029,14.164724 9.056029,14.164724 l -0.00842,-2.286689 c 0.2734934,0.211916 0.2301963,0.729797 0.2301963,0.729797 l 0.00493,1.405232 c 0,0.17403 0.039929,0.305124 0.1031914,0.403385 -0.093329,0.02105 -0.1882221,0.03764 -0.2815515,0.05364 z M 10.138336,14.2073 c -0.121713,-0.113415 -0.136987,-0.215885 -0.136987,-0.215885 l -0.0067,-1.84145 C 9.99305,11.431958 9.6894894,11.053469 9.3943474,10.85334 11.112401,10.676423 11.936249,10.117169 12.313054,9.2513467 c 0.658838,0.015876 1.125845,-0.054963 2.098346,0.167656 -0.492023,2.2408663 -2.128414,4.0493623 -4.273064,4.7883003 z M 14.42463,9.3648814 c -0.962158,-0.2210559 -1.424355,-0.153344 -2.08644,-0.170302 0.035,-0.087316 0.06675,-0.1784803 0.09345,-0.2716894 0.665332,-0.030909 1.147494,-0.1391521 2.071406,-0.011786 -0.02177,0.1535844 -0.04667,0.3036811 -0.07842,0.4537778 z M 12.448117,8.8651605 c 0.125201,-0.4611142 0.163326,-0.9904214 0.160199,-1.5810662 -0.0017,-0.8473005 -0.323646,-1.5244192 -0.840565,-2.0373697 0.0884,-0.2918947 0.206864,-0.9397879 -0.126765,-1.7679655 0,0 -0.583789,-0.1825694 -1.9014644,0.7064646 C 9.2224819,4.0576175 8.6721275,3.9966407 8.1218934,3.9974826 7.5146514,4.0000083 6.9024783,4.079266 6.3320388,4.2385032 4.9661352,3.3129071 4.3657486,3.5055793 4.3657486,3.5055793 3.977157,4.4904683 4.222387,5.217018 4.2957516,5.3977834 3.838967,5.8982259 3.5586182,6.5361367 3.560302,7.3165671 3.5636696,7.9054078 3.6319828,8.4341137 3.7971132,8.892582 3.1116958,8.8709335 2.4610364,8.7994932 1.5021256,8.9476656 1.4570245,8.6385723 1.4338124,8.3223831 1.4338124,7.9996993 1.4320084,4.3738067 4.3675526,1.4333314 7.9867102,1.4333314 c 3.6476618,0 6.5814018,2.9404753 6.5814018,6.5663679 0,0.290211 -0.02165,0.57513 -0.05845,0.8553586 -0.915614,-0.1273657 -1.394288,-0.019724 -2.061544,0.010103 z"
     id="path3"
     inkscape:connector-curvature="0"
     style="fill:#000000" /><g
     id="g5"
     transform="translate(0,-114)"><g
       id="g7"
       style="fill:#000000"
       transform="matrix(0.12026976,0,0,0.12026976,0.18252573,114.18253)"><path
         id="SVGID_1_"
         d="m 64.876,0.353 c -35.654,0 -64.527,28.935 -64.527,64.644 0,35.724 28.873,64.649 64.527,64.649 35.903,0 64.774,-28.926 64.774,-64.649 0,-35.709 -28.871,-64.644 -64.774,-64.644 z M 11.027,73.354 c 8.071,-1.242 13.522,-0.639 19.207,-0.445 0.305,0.792 0.638,1.554 1.012,2.296 -5.561,0.2 -11.218,0.021 -19.483,1.94 -0.278,-1.256 -0.528,-2.508 -0.736,-3.791 z m 40.674,22.574 c -2.579,1.264 -10.789,4.327 -15.739,-4.145 0,0 -2.774,-5.042 -8.043,-5.417 0,0 -5.132,-0.062 -0.361,3.196 0,0 3.439,1.608 5.824,7.676 0,0 3.121,10.353 17.987,6.976 l 0.041,10.706 c 0,0 -0.111,1.357 -0.957,2.732 -19.096,-5.243 -34.003,-20.637 -38.58,-40.051 8.362,-1.947 14.104,-1.746 19.623,-1.941 3.855,7.136 11.399,11.719 24.823,13.111 -1.914,1.297 -3.841,3.481 -4.618,7.157 z m -1.289,2.427 c 0,0.401 -0.458,0.713 -1.012,0.721 -0.57,0 -1.026,-0.311 -1.026,-0.707 0,-0.389 0.457,-0.715 1.012,-0.715 0.568,-0.006 1.026,0.319 1.026,0.701 z m -3.342,0.577 c 0.013,0.381 -0.445,0.705 -1.012,0.705 -0.569,0 -1.026,-0.318 -1.026,-0.705 0,-0.396 0.457,-0.715 1.026,-0.715 0.553,0 1.012,0.31 1.012,0.715 z m -3.287,0.006 c 0,0.381 -0.444,0.709 -1.012,0.715 -0.583,0 -1.026,-0.325 -1.041,-0.707 0,-0.401 0.458,-0.715 1.026,-0.715 0.569,-10e-4 1.027,0.312 1.027,0.707 z m -3.315,-1.256 c 0,0.396 -0.457,0.715 -1.026,0.715 -0.555,0 -1.012,-0.311 -1.012,-0.715 0,-0.381 0.443,-0.707 1.012,-0.707 0.569,-0.008 1.026,0.319 1.026,0.707 z m -6.712,-7.155 c 0.555,0 1.026,0.312 1.026,0.707 0,0.396 -0.472,0.707 -1.026,0.715 -0.569,0 -1.026,-0.312 -1.026,-0.707 0,-0.396 0.457,-0.715 1.026,-0.715 z m -1.733,-0.625 c -0.569,0.008 -1.026,-0.318 -1.041,-0.707 0,-0.396 0.472,-0.709 1.026,-0.709 0.568,-0.006 1.026,0.312 1.026,0.701 0.015,0.397 -0.457,0.715 -1.011,0.715 z m 3.314,2.983 c 0.554,0 1.026,0.319 1.026,0.707 0,0.396 -0.458,0.713 -1.013,0.721 -0.568,0 -1.04,-0.318 -1.04,-0.707 10e-4,-0.395 0.459,-0.721 1.027,-0.721 z m 1.747,2.204 c 0.556,0 1.013,0.319 1.013,0.708 0,0.4 -0.443,0.715 -1.013,0.723 -0.568,0 -1.026,-0.322 -1.026,-0.715 0,-0.382 0.458,-0.707 1.026,-0.716 z m -6.892,-7.467 c 0,0.388 -0.443,0.708 -1.013,0.715 -0.567,0 -1.026,-0.313 -1.026,-0.708 0,-0.396 0.459,-0.715 1.026,-0.715 0.556,-0.005 1.013,0.313 1.013,0.708 z m 28.124,31.569 c -0.722,-0.092 -1.429,-0.18 -2.136,-0.293 0.735,-0.873 1.221,-2.086 1.207,-3.84 l -0.028,-11.685 c 0,0 -0.416,-4.618 1.858,-6.239 l 0.07,19.178 c 0,0.002 -0.153,1.417 -0.971,2.879 z m 6.573,0.403 c -0.042,0 -0.083,-0.007 -0.111,-0.007 0.458,-0.937 0.75,-2.114 0.805,-3.612 l 0.083,-19.408 1.596,-0.008 0.206,19.403 c 0.071,1.461 0.362,2.613 0.778,3.521 -1.111,0.062 -2.232,0.111 -3.357,0.111 z m 9.293,-0.798 C 73.821,117.43 73.78,116.257 73.78,116.257 L 73.71,97.244 c 2.274,1.762 1.914,6.068 1.914,6.068 l 0.041,11.684 c 0,1.447 0.332,2.537 0.858,3.354 -0.776,0.175 -1.565,0.313 -2.341,0.446 z m 8.597,-2.185 c -1.012,-0.943 -1.139,-1.795 -1.139,-1.795 L 81.584,99.505 c -0.013,-5.97 -2.537,-9.117 -4.991,-10.781 14.285,-1.471 21.135,-6.121 24.268,-13.32 5.478,0.132 9.361,-0.457 17.447,1.394 -4.091,18.632 -17.697,33.669 -35.529,39.813 z m 35.639,-40.263 c -8,-1.838 -11.843,-1.275 -17.348,-1.416 0.291,-0.726 0.555,-1.484 0.777,-2.259 5.532,-0.257 9.541,-1.157 17.223,-0.098 -0.181,1.277 -0.388,2.525 -0.652,3.773 z m -16.434,-4.155 c 1.041,-3.834 1.358,-8.235 1.332,-13.146 -0.014,-7.045 -2.691,-12.675 -6.989,-16.94 0.735,-2.427 1.72,-7.814 -1.054,-14.7 0,0 -4.854,-1.518 -15.81,5.874 C 75.164,32.22 70.588,31.713 66.013,31.72 60.964,31.741 55.874,32.4 51.131,33.724 39.774,26.028 34.782,27.63 34.782,27.63 31.551,35.819 33.59,41.86 34.2,43.363 c -3.798,4.161 -6.129,9.465 -6.115,15.954 0.028,4.896 0.596,9.292 1.969,13.104 C 24.355,72.241 18.945,71.647 10.972,72.879 10.597,70.309 10.404,67.68 10.404,64.997 10.389,34.849 34.797,10.4 64.889,10.4 c 30.329,0 54.722,24.449 54.722,54.597 0,2.413 -0.18,4.782 -0.486,7.112 -7.613,-1.059 -11.593,-0.164 -17.141,0.084 z"
         inkscape:connector-curvature="0"
         style="fill:#000000" /></g><g
       id="g10"><defs
         id="defs12"><path
           id="SVGID_2_"
           d="m 64.876,0.353 c -35.654,0 -64.527,28.935 -64.527,64.644 0,35.724 28.873,64.649 64.527,64.649 35.903,0 64.774,-28.926 64.774,-64.649 0,-35.709 -28.871,-64.644 -64.774,-64.644 z M 11.027,73.354 c 8.071,-1.242 13.522,-0.639 19.207,-0.445 0.305,0.792 0.638,1.554 1.012,2.296 -5.561,0.2 -11.218,0.021 -19.483,1.94 -0.278,-1.256 -0.528,-2.508 -0.736,-3.791 z m 40.674,22.574 c -2.579,1.264 -10.789,4.327 -15.739,-4.145 0,0 -2.774,-5.042 -8.043,-5.417 0,0 -5.132,-0.062 -0.361,3.196 0,0 3.439,1.608 5.824,7.676 0,0 3.121,10.353 17.987,6.976 l 0.041,10.706 c 0,0 -0.111,1.357 -0.957,2.732 -19.096,-5.243 -34.003,-20.637 -38.58,-40.051 8.362,-1.947 14.104,-1.746 19.623,-1.941 3.855,7.136 11.399,11.719 24.823,13.111 -1.914,1.297 -3.841,3.481 -4.618,7.157 z m -1.289,2.427 c 0,0.401 -0.458,0.713 -1.012,0.721 -0.57,0 -1.026,-0.311 -1.026,-0.707 0,-0.389 0.457,-0.715 1.012,-0.715 0.568,-0.006 1.026,0.319 1.026,0.701 z m -3.342,0.577 c 0.013,0.381 -0.445,0.705 -1.012,0.705 -0.569,0 -1.026,-0.318 -1.026,-0.705 0,-0.396 0.457,-0.715 1.026,-0.715 0.553,0 1.012,0.31 1.012,0.715 z m -3.287,0.006 c 0,0.381 -0.444,0.709 -1.012,0.715 -0.583,0 -1.026,-0.325 -1.041,-0.707 0,-0.401 0.458,-0.715 1.026,-0.715 0.569,-10e-4 1.027,0.312 1.027,0.707 z m -3.315,-1.256 c 0,0.396 -0.457,0.715 -1.026,0.715 -0.555,0 -1.012,-0.311 -1.012,-0.715 0,-0.381 0.443,-0.707 1.012,-0.707 0.569,-0.008 1.026,0.319 1.026,0.707 z m -6.712,-7.155 c 0.555,0 1.026,0.312 1.026,0.707 0,0.396 -0.472,0.707 -1.026,0.715 -0.569,0 -1.026,-0.312 -1.026,-0.707 0,-0.396 0.457,-0.715 1.026,-0.715 z m -1.733,-0.625 c -0.569,0.008 -1.026,-0.318 -1.041,-0.707 0,-0.396 0.472,-0.709 1.026,-0.709 0.568,-0.006 1.026,0.312 1.026,0.701 0.015,0.397 -0.457,0.715 -1.011,0.715 z m 3.314,2.983 c 0.554,0 1.026,0.319 1.026,0.707 0,0.396 -0.458,0.713 -1.013,0.721 -0.568,0 -1.04,-0.318 -1.04,-0.707 10e-4,-0.395 0.459,-0.721 1.027,-0.721 z m 1.747,2.204 c 0.556,0 1.013,0.319 1.013,0.708 0,0.4 -0.443,0.715 -1.013,0.723 -0.568,0 -1.026,-0.322 -1.026,-0.715 0,-0.382 0.458,-0.707 1.026,-0.716 z m -6.892,-7.467 c 0,0.388 -0.443,0.708 -1.013,0.715 -0.567,0 -1.026,-0.313 -1.026,-0.708 0,-0.396 0.459,-0.715 1.026,-0.715 0.556,-0.005 1.013,0.313 1.013,0.708 z m 28.124,31.569 c -0.722,-0.092 -1.429,-0.18 -2.136,-0.293 0.735,-0.873 1.221,-2.086 1.207,-3.84 l -0.028,-11.685 c 0,0 -0.416,-4.618 1.858,-6.239 l 0.07,19.178 c 0,0.002 -0.153,1.417 -0.971,2.879 z m 6.573,0.403 c -0.042,0 -0.083,-0.007 -0.111,-0.007 0.458,-0.937 0.75,-2.114 0.805,-3.612 l 0.083,-19.408 1.596,-0.008 0.206,19.403 c 0.071,1.461 0.362,2.613 0.778,3.521 -1.111,0.062 -2.232,0.111 -3.357,0.111 z m 9.293,-0.798 C 73.821,117.43 73.78,116.257 73.78,116.257 L 73.71,97.244 c 2.274,1.762 1.914,6.068 1.914,6.068 l 0.041,11.684 c 0,1.447 0.332,2.537 0.858,3.354 -0.776,0.175 -1.565,0.313 -2.341,0.446 z m 8.597,-2.185 c -1.012,-0.943 -1.139,-1.795 -1.139,-1.795 L 81.584,99.505 c -0.013,-5.97 -2.537,-9.117 -4.991,-10.781 14.285,-1.471 21.135,-6.121 24.268,-13.32 5.478,0.132 9.361,-0.457 17.447,1.394 -4.091,18.632 -17.697,33.669 -35.529,39.813 z m 35.639,-40.263 c -8,-1.838 -11.843,-1.275 -17.348,-1.416 0.291,-0.726 0.555,-1.484 0.777,-2.259 5.532,-0.257 9.541,-1.157 17.223,-0.098 -0.181,1.277 -0.388,2.525 -0.652,3.773 z m -16.434,-4.155 c 1.041,-3.834 1.358,-8.235 1.332,-13.146 -0.014,-7.045 -2.691,-12.675 -6.989,-16.94 0.735,-2.427 1.72,-7.814 -1.054,-14.7 0,0 -4.854,-1.518 -15.81,5.874 C 75.164,32.22 70.588,31.713 66.013,31.72 60.964,31.741 55.874,32.4 51.131,33.724 39.774,26.028 34.782,27.63 34.782,27.63 31.551,35.819 33.59,41.86 34.2,43.363 c -3.798,4.161 -6.129,9.465 -6.115,15.954 0.028,4.896 0.596,9.292 1.969,13.104 C 24.355,72.241 18.945,71.647 10.972,72.879 10.597,70.309 10.404,67.68 10.404,64.997 10.389,34.849 34.797,10.4 64.889,10.4 c 30.329,0 54.722,24.449 54.722,54.597 0,2.413 -0.18,4.782 -0.486,7.112 -7.613,-1.059 -11.593,-0.164 -17.141,0.084 z"
           inkscape:connector-curvature="0" /></defs><clipPath
         id="SVGID_3_"><use
           xlink:href="#SVGID_2_"
           overflow="visible"
           id="use16"
           style="overflow:visible"
           x="0"
           y="0"
           width="130"
           height="130" /></clipPath></g></g></svg>